<?xml version="1.0" encoding="UTF-8" standalone="no"?><!-- Generator: Gravit.io --><svg xmlns="http://www.w3.org/2000/svg" xmlns:xlink="http://www.w3.org/1999/xlink" style="isolation:isolate" viewBox="0 0 128 128" width="128pt" height="128pt"><defs><clipPath id="_clipPath_u6QQ6slHr3g0yigCO8FL0tRidwsKjQYY"><rect width="128" height="128"/></clipPath></defs><g clip-path="url(#_clipPath_u6QQ6slHr3g0yigCO8FL0tRidwsKjQYY)"><rect width="128" height="128" style="fill:rgb(0,0,0)"/><g><path d=" M 38.137 23 L 38.137 33.342 L 32.966 33.342 L 32.966 38.512 L 22.624 38.512 L 22.624 43.683 L 32.966 43.683 L 32.966 54.025 L 22.624 54.025 L 22.624 59.196 L 32.966 59.196 L 32.966 69.537 L 22.624 69.537 L 22.624 74.708 L 32.966 74.708 L 32.966 85.05 L 22.624 85.05 L 22.624 90.22 L 32.966 90.22 L 32.966 95.391 L 38.137 95.391 L 38.137 105.733 L 43.308 105.733 L 43.308 95.391 L 53.649 95.391 L 53.649 105.733 L 58.82 105.733 L 58.82 95.391 L 69.162 95.391 L 69.162 105.733 L 74.332 105.733 L 74.332 95.391 L 84.674 95.391 L 84.674 105.733 L 89.845 105.733 L 89.845 95.391 L 95.016 95.391 L 95.016 90.22 L 105.357 90.22 L 105.357 85.05 L 95.016 85.05 L 95.016 74.708 L 105.357 74.708 L 105.357 69.537 L 95.016 69.537 L 95.016 59.196 L 105.357 59.196 L 105.357 54.025 L 95.016 54.025 L 95.016 43.683 L 105.357 43.683 L 105.357 38.512 L 95.016 38.512 L 95.016 33.342 L 89.845 33.342 L 89.845 23 L 84.674 23 L 84.674 33.342 L 74.332 33.342 L 74.332 23 L 69.162 23 L 69.162 33.342 L 58.82 33.342 L 58.82 23 L 53.649 23 L 53.649 33.342 L 43.308 33.342 L 43.308 23 L 38.137 23 Z " fill="rgb(77,77,77)"/><rect x="38.146" y="38.512" width="51.708" height="51.708" transform="matrix(1,0,0,1,0,0)" fill="rgb(77,77,77)"/><path d=" M 51.464 79 L 57.127 79 L 57.127 66.118 L 70.916 66.118 L 70.916 79 L 76.536 79 L 76.536 49 L 70.916 49 L 70.916 61.147 L 57.127 61.147 L 57.127 49 L 51.464 49 L 51.464 79 Z " fill="rgb(221,221,221)"/></g></g></svg>