<?xml version="1.0" encoding="UTF-8" standalone="no"?><!-- Generator: Gravit.io --><svg xmlns="http://www.w3.org/2000/svg" xmlns:xlink="http://www.w3.org/1999/xlink" style="isolation:isolate" viewBox="0 0 512 512" width="512pt" height="512pt"><defs><clipPath id="_clipPath_e0mC7hwTJeMqkX3RG6vQyGQYRSnt8xST"><rect width="512" height="512"/></clipPath></defs><g clip-path="url(#_clipPath_e0mC7hwTJeMqkX3RG6vQyGQYRSnt8xST)"><path d=" M 89.6 204.795 C 89.6 194.191 81.004 185.595 70.4 185.595 L 19.2 185.595 C 8.596 185.595 0 194.191 0 204.795 C 0 215.399 8.596 223.995 19.2 223.995 L 70.4 223.995 C 81.004 223.995 89.6 215.399 89.6 204.795 Z  M 85.664 280.971 L 41.328 306.571 C 35.253 309.933 31.467 316.312 31.425 323.255 C 31.384 330.198 35.094 336.622 41.128 340.057 C 47.162 343.491 54.58 343.4 60.528 339.819 L 104.864 314.219 C 113.832 308.82 116.822 297.233 111.588 288.169 C 106.353 279.104 94.822 275.903 85.664 280.971 L 85.664 280.971 Z  M 104.864 95.371 L 60.528 69.771 C 54.58 66.19 47.162 66.099 41.128 69.533 C 35.094 72.968 31.384 79.392 31.425 86.335 C 31.467 93.278 35.253 99.657 41.328 103.019 L 85.664 128.619 C 91.612 132.2 99.03 132.291 105.064 128.857 C 111.098 125.422 114.808 118.998 114.767 112.055 C 114.725 105.112 110.939 98.733 104.864 95.371 L 104.864 95.371 Z  M 416.752 131.195 C 420.124 131.201 423.437 130.313 426.352 128.619 L 470.688 103.019 C 479.656 97.62 482.646 86.033 477.412 76.969 C 472.177 67.904 460.646 64.703 451.488 69.771 L 407.152 95.371 C 399.63 99.718 395.964 108.573 398.213 116.965 C 400.461 125.356 408.065 131.192 416.752 131.195 Z  M 492.8 185.595 L 441.6 185.595 C 430.996 185.595 422.4 194.191 422.4 204.795 C 422.4 215.399 430.996 223.995 441.6 223.995 L 492.8 223.995 C 503.404 223.995 512 215.399 512 204.795 C 512 194.191 503.404 185.595 492.8 185.595 Z  M 470.672 306.579 L 426.336 280.979 C 420.388 277.398 412.97 277.307 406.936 280.741 C 400.902 284.176 397.192 290.6 397.233 297.543 C 397.275 304.486 401.061 310.865 407.136 314.227 L 451.472 339.827 C 460.63 344.895 472.161 341.694 477.396 332.629 C 482.63 323.565 479.64 311.978 470.672 306.579 Z  M 256 51.195 C 174.176 51.195 115.2 117.595 115.2 191.995 C 115.152 226.083 127.543 259.016 150.048 284.619 C 163.352 299.819 184.248 331.659 191.976 358.347 L 191.976 358.395 L 230.376 358.395 L 230.376 358.299 C 230.374 354.483 229.8 350.689 228.672 347.043 C 224.2 332.795 210.4 295.243 178.928 259.315 C 162.607 240.689 153.621 216.76 153.648 191.995 C 153.472 133.083 201.376 89.595 256 89.595 C 296.166 89.568 332.633 113.041 349.241 149.613 C 365.849 186.184 359.525 229.09 333.072 259.315 C 301.8 295.003 287.952 332.491 283.4 346.883 C 282.314 350.607 281.709 354.454 281.6 358.331 L 281.6 358.395 L 320 358.395 L 320 358.395 C 327.752 331.699 348.624 299.851 361.928 284.675 C 398.331 243.116 407.052 184.102 384.226 133.789 C 361.399 83.477 311.248 51.173 256 51.195 Z  M 256 115.195 C 213.605 115.243 179.248 149.6 179.2 191.995 C 179.2 199.064 184.931 204.795 192 204.795 C 199.069 204.795 204.8 199.064 204.8 191.995 C 204.835 163.733 227.738 140.83 256 140.795 C 263.069 140.795 268.8 135.064 268.8 127.995 C 268.8 120.926 263.069 115.195 256 115.195 Z  M 192.048 418.547 C 192.054 421.065 192.803 423.525 194.2 425.619 L 213.8 455.083 C 216.171 458.648 220.167 460.792 224.448 460.795 L 287.528 460.795 C 291.818 460.8 295.825 458.655 298.2 455.083 L 317.8 425.595 C 319.189 423.497 319.936 421.039 319.952 418.523 L 320 383.995 L 192 383.995 L 192.048 418.547 Z " fill="#F2F2F2"/></g></svg>
