<?xml version="1.0" encoding="UTF-8" standalone="no"?><!-- Generator: Gravit.io --><svg xmlns="http://www.w3.org/2000/svg" xmlns:xlink="http://www.w3.org/1999/xlink" style="isolation:isolate" viewBox="0 0 512 512" width="512pt" height="512pt"><defs><clipPath id="_clipPath_HqVTLp7W7PwVo9R7f1DWXfwsfubrX0VG"><rect width="512" height="512"/></clipPath></defs><g clip-path="url(#_clipPath_HqVTLp7W7PwVo9R7f1DWXfwsfubrX0VG)"><path d=" M 256 115.196 C 213.647 115.196 179.198 149.645 179.198 191.998 C 179.198 199.07 184.927 204.798 191.999 204.798 C 199.071 204.798 204.799 199.07 204.799 191.998 C 204.799 163.757 227.775 140.797 256 140.797 C 263.072 140.797 268.8 135.069 268.8 127.996 C 268.8 120.924 263.072 115.196 256 115.196 Z  M 192.047 418.538 C 192.047 421.058 192.791 423.514 194.191 425.61 L 213.799 455.083 C 216.175 458.651 220.175 460.795 224.455 460.795 L 287.537 460.795 C 291.825 460.795 295.825 458.651 298.193 455.083 L 317.801 425.61 C 319.193 423.514 319.937 421.05 319.945 418.538 L 319.985 383.994 L 192.015 383.994 L 192.047 418.538 Z  M 256 51.195 C 174.174 51.195 115.197 117.572 115.197 191.998 C 115.197 227.494 128.358 259.879 150.046 284.624 C 163.358 299.816 184.239 331.664 191.983 358.353 L 191.983 358.401 L 230.383 358.401 L 230.383 358.305 C 230.375 354.489 229.807 350.697 228.663 347.049 C 224.191 332.801 210.407 295.232 178.926 259.311 C 162.494 240.567 153.71 216.79 153.638 191.998 C 153.478 133.085 201.375 89.596 256 89.596 C 312.465 89.596 358.402 135.533 358.402 191.998 C 358.402 216.774 349.41 240.679 333.082 259.311 C 301.793 295 287.945 332.488 283.401 346.881 C 282.228 350.581 281.629 354.439 281.625 358.321 L 281.625 358.401 L 320.025 358.401 L 320.025 358.361 C 327.769 331.664 348.65 299.816 361.962 284.632 C 383.642 259.879 396.803 227.494 396.803 191.998 C 396.803 114.236 333.762 51.195 256 51.195 Z " fill="#F2F2F2"/></g></svg>
