<?xml version="1.0" encoding="UTF-8" standalone="no"?><!-- Generator: Gravit.io --><svg xmlns="http://www.w3.org/2000/svg" xmlns:xlink="http://www.w3.org/1999/xlink" style="isolation:isolate" viewBox="0 0 128 128" width="128pt" height="128pt"><defs><clipPath id="_clipPath_fsQf3IXDsFZTCurpYWBP0aXTVKtq7nuH"><rect width="128" height="128"/></clipPath></defs><g clip-path="url(#_clipPath_fsQf3IXDsFZTCurpYWBP0aXTVKtq7nuH)"><g><mask id="_mask_NCmJzAkkmJSCvc3s3JeW0hQkLBq979ft" x="-200%" y="-200%" width="400%" height="400%"><rect x="-200%" y="-200%" width="400%" height="400%" style="fill:white;"/><path d=" M 51.253 95.504 C 43.858 99.573 20.186 112.552 19.981 112.787 C 20.175 112.756 45.262 101.339 53.91 97.527 L 53.91 97.527 C 74.756 113.365 86.166 121.386 93.98 126 C 90.83 122.843 86.699 119.099 80.919 114.264 C 85.251 110.632 90.058 104.601 93.073 99.993 C 96.459 94.819 99.509 89.037 102.138 83.309 C 103.476 80.392 104.733 77.348 105.915 74.247 C 106.515 72.676 107.035 71.158 107.576 69.49 C 107.876 68.567 108.967 65.196 109.05 64.443 C 107.806 64.613 86.065 76.343 83.996 77.454 C 81.191 78.96 78.504 80.529 75.782 82.008 C 73.137 83.444 70.338 85.142 67.706 86.605 C 63.042 89.198 59.38 90.907 54.8 93.538 C 53.637 92.639 52.381 91.677 51.09 90.691 Q 61.908 84.05 66.37 81.511 L 66.37 81.511 L 66.37 81.511 C 67.234 81.02 68.037 80.573 68.827 80.121 C 69.483 79.744 70.685 79.117 71.215 78.732 L 75.034 76.637 C 76.325 75.921 77.511 75.3 78.871 74.524 C 81.442 73.057 84.047 71.827 86.578 70.401 Q 86.95 70.192 106.145 60.372 C 107.478 59.738 108.856 59.008 110.112 58.395 C 112.659 57.15 114.126 53.117 114.089 50.531 C 113.639 50.55 111.809 51.417 111.313 51.599 C 110.971 51.724 110.656 51.832 110.336 51.968 C 108.066 52.932 105.037 54.072 102.886 55.087 C 102.261 55.382 101.657 55.626 101.025 55.897 C 100.529 56.11 99.435 56.539 99.231 56.793 C 98.548 56.758 84.644 63.648 82.911 64.544 C 80.443 65.82 77.34 67.349 74.969 68.669 C 74.688 68.825 67.458 72.652 67.17 73.02 C 66.693 73.1 61.737 76.043 60.947 76.489 C 55.81 79.388 50.384 82.678 45.042 86.091 C 43.627 85.021 42.251 83.984 40.93 82.994 C 42.157 82.009 43.404 81.023 44.686 80.028 C 47.703 77.687 50.839 75.298 54.084 72.983 C 57.267 70.712 60.466 68.524 63.789 66.328 L 68.806 63.135 C 69.271 62.868 73.841 60.148 73.914 60.056 L 78.386 57.59 C 79.887 56.741 81.346 56.033 82.936 55.177 C 87.602 52.664 96.87 48.568 102.181 46.694 C 103.924 46.079 105.585 45.499 107.348 44.896 L 112.633 43.241 C 112.205 43.021 106.366 42.96 105.291 42.96 C 100.961 42.96 98.305 43.08 94.172 43.407 C 91.008 43.657 85.122 44.306 82.245 45.002 C 81.727 45.127 81.114 45.18 80.593 45.318 C 79.595 45.58 78.453 45.761 77.432 46.016 C 75.326 46.54 73.413 47.134 71.434 47.724 C 69.396 48.332 67.553 49.052 65.731 49.802 C 64.654 50.245 61.399 52.421 61.122 52.986 L 61.122 52.986 C 60.911 53.048 60.856 53.143 60.646 53.322 C 60.477 53.466 60.335 53.569 60.171 53.71 C 59.796 54.033 59.576 54.233 59.246 54.51 C 57.609 55.887 55.389 58.032 53.784 59.535 C 51.295 61.865 49.052 64.11 46.664 66.428 C 42.819 70.16 38.537 74.532 34.588 78.308 L 34.588 78.308 C 20.718 68.047 12.44 62.562 6.91 59.464 C 13.233 65.694 24.914 75.382 48.942 93.743 C 49.744 94.356 50.534 94.959 51.253 95.504 Z  M 71.477 106.571 L 71.477 106.571 C 78.345 103.314 81.888 95.586 85.164 89.106 C 85.766 87.914 86.431 86.551 86.982 85.353 C 87.313 84.634 88.623 82.187 88.745 81.698 L 57.765 95.817 C 62.991 99.85 67.555 103.429 71.477 106.571 Z  M 57.774 95.819 C 63.883 93.164 86.944 82.386 57.766 95.814 C 57.725 95.786 57.728 95.787 57.774 95.819 Z " fill-rule="evenodd" fill="black" stroke="none"/></mask><path d=" M 51.253 95.504 C 43.858 99.573 20.186 112.552 19.981 112.787 C 20.175 112.756 45.262 101.339 53.91 97.527 L 53.91 97.527 C 74.756 113.365 86.166 121.386 93.98 126 C 90.83 122.843 86.699 119.099 80.919 114.264 C 85.251 110.632 90.058 104.601 93.073 99.993 C 96.459 94.819 99.509 89.037 102.138 83.309 C 103.476 80.392 104.733 77.348 105.915 74.247 C 106.515 72.676 107.035 71.158 107.576 69.49 C 107.876 68.567 108.967 65.196 109.05 64.443 C 107.806 64.613 86.065 76.343 83.996 77.454 C 81.191 78.96 78.504 80.529 75.782 82.008 C 73.137 83.444 70.338 85.142 67.706 86.605 C 63.042 89.198 59.38 90.907 54.8 93.538 C 53.637 92.639 52.381 91.677 51.09 90.691 Q 61.908 84.05 66.37 81.511 L 66.37 81.511 L 66.37 81.511 C 67.234 81.02 68.037 80.573 68.827 80.121 C 69.483 79.744 70.685 79.117 71.215 78.732 L 75.034 76.637 C 76.325 75.921 77.511 75.3 78.871 74.524 C 81.442 73.057 84.047 71.827 86.578 70.401 Q 86.95 70.192 106.145 60.372 C 107.478 59.738 108.856 59.008 110.112 58.395 C 112.659 57.15 114.126 53.117 114.089 50.531 C 113.639 50.55 111.809 51.417 111.313 51.599 C 110.971 51.724 110.656 51.832 110.336 51.968 C 108.066 52.932 105.037 54.072 102.886 55.087 C 102.261 55.382 101.657 55.626 101.025 55.897 C 100.529 56.11 99.435 56.539 99.231 56.793 C 98.548 56.758 84.644 63.648 82.911 64.544 C 80.443 65.82 77.34 67.349 74.969 68.669 C 74.688 68.825 67.458 72.652 67.17 73.02 C 66.693 73.1 61.737 76.043 60.947 76.489 C 55.81 79.388 50.384 82.678 45.042 86.091 C 43.627 85.021 42.251 83.984 40.93 82.994 C 42.157 82.009 43.404 81.023 44.686 80.028 C 47.703 77.687 50.839 75.298 54.084 72.983 C 57.267 70.712 60.466 68.524 63.789 66.328 L 68.806 63.135 C 69.271 62.868 73.841 60.148 73.914 60.056 L 78.386 57.59 C 79.887 56.741 81.346 56.033 82.936 55.177 C 87.602 52.664 96.87 48.568 102.181 46.694 C 103.924 46.079 105.585 45.499 107.348 44.896 L 112.633 43.241 C 112.205 43.021 106.366 42.96 105.291 42.96 C 100.961 42.96 98.305 43.08 94.172 43.407 C 91.008 43.657 85.122 44.306 82.245 45.002 C 81.727 45.127 81.114 45.18 80.593 45.318 C 79.595 45.58 78.453 45.761 77.432 46.016 C 75.326 46.54 73.413 47.134 71.434 47.724 C 69.396 48.332 67.553 49.052 65.731 49.802 C 64.654 50.245 61.399 52.421 61.122 52.986 L 61.122 52.986 C 60.911 53.048 60.856 53.143 60.646 53.322 C 60.477 53.466 60.335 53.569 60.171 53.71 C 59.796 54.033 59.576 54.233 59.246 54.51 C 57.609 55.887 55.389 58.032 53.784 59.535 C 51.295 61.865 49.052 64.11 46.664 66.428 C 42.819 70.16 38.537 74.532 34.588 78.308 L 34.588 78.308 C 20.718 68.047 12.44 62.562 6.91 59.464 C 13.233 65.694 24.914 75.382 48.942 93.743 C 49.744 94.356 50.534 94.959 51.253 95.504 Z  M 71.477 106.571 L 71.477 106.571 C 78.345 103.314 81.888 95.586 85.164 89.106 C 85.766 87.914 86.431 86.551 86.982 85.353 C 87.313 84.634 88.623 82.187 88.745 81.698 L 57.765 95.817 C 62.991 99.85 67.555 103.429 71.477 106.571 Z  M 57.774 95.819 C 63.883 93.164 86.944 82.386 57.766 95.814 C 57.725 95.786 57.728 95.787 57.774 95.819 Z " fill-rule="evenodd" fill="rgb(23,23,23)"/><path d=" M 51.253 95.504 C 43.858 99.573 20.186 112.552 19.981 112.787 C 20.175 112.756 45.262 101.339 53.91 97.527 L 53.91 97.527 C 74.756 113.365 86.166 121.386 93.98 126 C 90.83 122.843 86.699 119.099 80.919 114.264 C 85.251 110.632 90.058 104.601 93.073 99.993 C 96.459 94.819 99.509 89.037 102.138 83.309 C 103.476 80.392 104.733 77.348 105.915 74.247 C 106.515 72.676 107.035 71.158 107.576 69.49 C 107.876 68.567 108.967 65.196 109.05 64.443 C 107.806 64.613 86.065 76.343 83.996 77.454 C 81.191 78.96 78.504 80.529 75.782 82.008 C 73.137 83.444 70.338 85.142 67.706 86.605 C 63.042 89.198 59.38 90.907 54.8 93.538 C 53.637 92.639 52.381 91.677 51.09 90.691 Q 61.908 84.05 66.37 81.511 L 66.37 81.511 L 66.37 81.511 C 67.234 81.02 68.037 80.573 68.827 80.121 C 69.483 79.744 70.685 79.117 71.215 78.732 L 75.034 76.637 C 76.325 75.921 77.511 75.3 78.871 74.524 C 81.442 73.057 84.047 71.827 86.578 70.401 Q 86.95 70.192 106.145 60.372 C 107.478 59.738 108.856 59.008 110.112 58.395 C 112.659 57.15 114.126 53.117 114.089 50.531 C 113.639 50.55 111.809 51.417 111.313 51.599 C 110.971 51.724 110.656 51.832 110.336 51.968 C 108.066 52.932 105.037 54.072 102.886 55.087 C 102.261 55.382 101.657 55.626 101.025 55.897 C 100.529 56.11 99.435 56.539 99.231 56.793 C 98.548 56.758 84.644 63.648 82.911 64.544 C 80.443 65.82 77.34 67.349 74.969 68.669 C 74.688 68.825 67.458 72.652 67.17 73.02 C 66.693 73.1 61.737 76.043 60.947 76.489 C 55.81 79.388 50.384 82.678 45.042 86.091 C 43.627 85.021 42.251 83.984 40.93 82.994 C 42.157 82.009 43.404 81.023 44.686 80.028 C 47.703 77.687 50.839 75.298 54.084 72.983 C 57.267 70.712 60.466 68.524 63.789 66.328 L 68.806 63.135 C 69.271 62.868 73.841 60.148 73.914 60.056 L 78.386 57.59 C 79.887 56.741 81.346 56.033 82.936 55.177 C 87.602 52.664 96.87 48.568 102.181 46.694 C 103.924 46.079 105.585 45.499 107.348 44.896 L 112.633 43.241 C 112.205 43.021 106.366 42.96 105.291 42.96 C 100.961 42.96 98.305 43.08 94.172 43.407 C 91.008 43.657 85.122 44.306 82.245 45.002 C 81.727 45.127 81.114 45.18 80.593 45.318 C 79.595 45.58 78.453 45.761 77.432 46.016 C 75.326 46.54 73.413 47.134 71.434 47.724 C 69.396 48.332 67.553 49.052 65.731 49.802 C 64.654 50.245 61.399 52.421 61.122 52.986 L 61.122 52.986 C 60.911 53.048 60.856 53.143 60.646 53.322 C 60.477 53.466 60.335 53.569 60.171 53.71 C 59.796 54.033 59.576 54.233 59.246 54.51 C 57.609 55.887 55.389 58.032 53.784 59.535 C 51.295 61.865 49.052 64.11 46.664 66.428 C 42.819 70.16 38.537 74.532 34.588 78.308 L 34.588 78.308 C 20.718 68.047 12.44 62.562 6.91 59.464 C 13.233 65.694 24.914 75.382 48.942 93.743 C 49.744 94.356 50.534 94.959 51.253 95.504 Z  M 71.477 106.571 L 71.477 106.571 C 78.345 103.314 81.888 95.586 85.164 89.106 C 85.766 87.914 86.431 86.551 86.982 85.353 C 87.313 84.634 88.623 82.187 88.745 81.698 L 57.765 95.817 C 62.991 99.85 67.555 103.429 71.477 106.571 Z  M 57.774 95.819 C 63.883 93.164 86.944 82.386 57.766 95.814 C 57.725 95.786 57.728 95.787 57.774 95.819 Z " fill-rule="evenodd" fill="rgb(23,23,23)" mask="url(#_mask_NCmJzAkkmJSCvc3s3JeW0hQkLBq979ft)" vector-effect="non-scaling-stroke" stroke-width="2" stroke="rgb(255,255,255)" stroke-linejoin="round" stroke-linecap="square" stroke-miterlimit="3"/><mask id="_mask_bUelPiBGQVxPwrqDscnuwdd5GT7yq0wu" x="-200%" y="-200%" width="400%" height="400%"><rect x="-200%" y="-200%" width="400%" height="400%" style="fill:white;"/><path d=" M 85.323 3.029 C 65.496 10.57 72.518 40.225 83.672 35.982 C 94.824 31.74 105.15 -4.513 85.323 3.029 Z " fill="black" stroke="none"/></mask><path d=" M 85.323 3.029 C 65.496 10.57 72.518 40.225 83.672 35.982 C 94.824 31.74 105.15 -4.513 85.323 3.029 Z " fill="rgb(23,23,23)"/><path d=" M 85.323 3.029 C 65.496 10.57 72.518 40.225 83.672 35.982 C 94.824 31.74 105.15 -4.513 85.323 3.029 Z " fill="rgb(23,23,23)" mask="url(#_mask_bUelPiBGQVxPwrqDscnuwdd5GT7yq0wu)" vector-effect="non-scaling-stroke" stroke-width="2" stroke="rgb(255,255,255)" stroke-linejoin="miter" stroke-linecap="butt" stroke-miterlimit="4"/><mask id="_mask_HBn7e5E2qNrOoEAtpwGdpfRCvyQ3fPi7" x="-200%" y="-200%" width="400%" height="400%"><rect x="-200%" y="-200%" width="400%" height="400%" style="fill:white;"/><path d=" M 61.811 40.291 C 67.888 38.395 65.645 12.891 55.034 18.584 C 44.427 24.277 55.732 42.189 61.811 40.291 Z " fill="black" stroke="none"/></mask><path d=" M 61.811 40.291 C 67.888 38.395 65.645 12.891 55.034 18.584 C 44.427 24.277 55.732 42.189 61.811 40.291 Z " fill="rgb(23,23,23)"/><path d=" M 61.811 40.291 C 67.888 38.395 65.645 12.891 55.034 18.584 C 44.427 24.277 55.732 42.189 61.811 40.291 Z " fill="rgb(23,23,23)" mask="url(#_mask_HBn7e5E2qNrOoEAtpwGdpfRCvyQ3fPi7)" vector-effect="non-scaling-stroke" stroke-width="2" stroke="rgb(255,255,255)" stroke-linejoin="miter" stroke-linecap="butt" stroke-miterlimit="4"/><mask id="_mask_7KdQxCqqg8YstUtAg23HCKXG7LGIgJhI" x="-200%" y="-200%" width="400%" height="400%"><rect x="-200%" y="-200%" width="400%" height="400%" style="fill:white;"/><path d=" M 40.036 64.952 C 43.553 61.486 32.956 44.7 27.66 52.392 C 22.368 60.083 36.519 68.417 40.036 64.952 Z " fill="black" stroke="none"/></mask><path d=" M 40.036 64.952 C 43.553 61.486 32.956 44.7 27.66 52.392 C 22.368 60.083 36.519 68.417 40.036 64.952 Z " fill="rgb(23,23,23)"/><path d=" M 40.036 64.952 C 43.553 61.486 32.956 44.7 27.66 52.392 C 22.368 60.083 36.519 68.417 40.036 64.952 Z " fill="rgb(23,23,23)" mask="url(#_mask_7KdQxCqqg8YstUtAg23HCKXG7LGIgJhI)" vector-effect="non-scaling-stroke" stroke-width="2" stroke="rgb(255,255,255)" stroke-linejoin="miter" stroke-linecap="butt" stroke-miterlimit="4"/><mask id="_mask_JO23NisP3Kz0inxRM9uSqc853Tq9AhWJ" x="-200%" y="-200%" width="400%" height="400%"><rect x="-200%" y="-200%" width="400%" height="400%" style="fill:white;"/><path d=" M 48.316 50.907 C 52.955 47.969 45.385 27.24 37.826 34.35 C 30.266 41.462 43.683 53.844 48.316 50.907 L 48.316 50.907 Z " fill="black" stroke="none"/></mask><path d=" M 48.316 50.907 C 52.955 47.969 45.385 27.24 37.826 34.35 C 30.266 41.462 43.683 53.844 48.316 50.907 L 48.316 50.907 Z " fill="rgb(23,23,23)"/><path d=" M 48.316 50.907 C 52.955 47.969 45.385 27.24 37.826 34.35 C 30.266 41.462 43.683 53.844 48.316 50.907 L 48.316 50.907 Z " fill="rgb(23,23,23)" mask="url(#_mask_JO23NisP3Kz0inxRM9uSqc853Tq9AhWJ)" vector-effect="non-scaling-stroke" stroke-width="2" stroke="rgb(255,255,255)" stroke-linejoin="miter" stroke-linecap="butt" stroke-miterlimit="4"/></g></g></svg>