<?xml version="1.0" encoding="UTF-8" standalone="no"?><!-- Generator: Gravit.io --><svg xmlns="http://www.w3.org/2000/svg" xmlns:xlink="http://www.w3.org/1999/xlink" style="isolation:isolate" viewBox="0 0 128 128" width="128pt" height="128pt"><defs><clipPath id="_clipPath_OjPJFaBP9CljRqOTLYAOWqV89gPqouPP"><rect width="128" height="128"/></clipPath></defs><g clip-path="url(#_clipPath_OjPJFaBP9CljRqOTLYAOWqV89gPqouPP)"><rect width="128" height="128" style="fill:rgb(34,34,34)" fill-opacity="0"/><g><path d=" M 93.424 92.725 L 93.187 96.013 C 92.988 98.765 90.586 101 87.826 101 L 45.534 101 C 42.775 101 40.643 98.762 40.776 96.006 L 40.935 92.732 C 41.069 89.976 38.937 87.709 36.178 87.674 L 26.007 87.543 C 23.247 87.507 21.007 85.238 21.007 82.479 L 21.007 29.697 C 21.007 26.938 23.247 24.718 26.007 24.744 L 36.584 24.841 C 39.344 24.867 41.584 27.128 41.584 29.888 L 41.584 31.309 C 41.584 34.069 43.825 36.309 46.584 36.309 L 101.993 36.309 C 104.753 36.309 106.993 38.55 106.993 41.309 L 106.993 82.479 C 106.993 85.238 104.753 87.523 101.994 87.577 L 98.783 87.64 C 96.024 87.694 93.623 89.973 93.424 92.725 Z " fill="rgb(77,77,77)"/><path d=" M 90.046 89.338 L 90.046 93.936 C 90.046 96.695 87.805 98.936 85.046 98.936 L 46.529 98.936 C 43.769 98.936 41.635 96.698 41.766 93.941 L 41.985 89.332 C 42.116 86.576 39.982 84.338 37.222 84.338 L 28.788 84.338 C 26.029 84.338 23.788 82.098 23.788 79.338 L 23.788 31.796 C 23.788 29.037 26.029 26.796 28.788 26.796 L 33.222 26.796 C 35.982 26.796 38.222 29.037 38.222 31.796 L 38.222 34.201 C 38.222 36.961 40.462 39.201 43.222 39.201 L 99.212 39.201 C 101.971 39.201 104.212 41.442 104.212 44.201 L 104.212 79.338 C 104.212 82.098 101.971 84.338 99.212 84.338 L 95.046 84.338 C 92.286 84.338 90.046 86.579 90.046 89.338 Z  M 96.121 94.418 L 96.121 99.011 C 96.121 101.77 93.881 104.011 91.121 104.011 L 41.449 104.011 C 38.69 104.011 36.555 101.773 36.686 99.016 L 36.905 94.412 C 37.036 91.656 34.902 89.418 32.143 89.418 L 23.712 89.418 C 20.952 89.418 18.712 87.177 18.712 84.418 L 18.712 26.721 C 18.712 23.961 20.952 21.74 23.712 21.763 L 38.295 21.884 C 41.055 21.907 43.295 24.166 43.295 26.926 L 43.295 29.128 C 43.295 31.888 45.536 34.128 48.295 34.128 L 104.288 34.128 C 107.048 34.128 109.288 36.368 109.288 39.128 L 109.288 84.418 C 109.288 87.177 107.048 89.418 104.288 89.418 L 101.121 89.418 C 98.362 89.418 96.121 91.658 96.121 94.418 Z " fill-rule="evenodd" fill="rgb(221,221,221)"/><path d=" M 47.167 67.806 L 47.167 67.806 L 47.167 67.806 Q 47.167 63.458 48.356 60.021 L 48.356 60.021 L 48.356 60.021 Q 49.545 56.584 51.57 54.373 L 51.57 54.373 L 51.57 54.373 Q 53.595 52.162 56.401 50.694 L 56.401 50.694 L 56.401 50.694 Q 59.206 49.226 62.272 48.613 L 62.272 48.613 L 62.272 48.613 Q 65.337 48 68.83 48 L 68.83 48 L 68.83 48 Q 75.11 48 80.424 50.304 L 80.424 50.304 L 81.724 50.861 L 79.309 58.107 L 77.86 57.624 L 77.86 57.624 Q 74.033 56.286 69.759 56.286 L 69.759 56.286 L 69.759 56.286 Q 66.972 56.286 64.687 56.769 L 64.687 56.769 L 64.687 56.769 Q 62.402 57.253 60.395 58.349 L 60.395 58.349 L 60.395 58.349 Q 58.389 59.445 57.255 61.563 L 57.255 61.563 L 57.255 61.563 Q 56.122 63.681 56.122 66.654 L 56.122 66.654 L 56.122 66.654 Q 56.122 78.062 70.577 78.062 L 70.577 78.062 L 70.577 78.062 Q 74.181 78.062 77.414 76.91 L 77.414 76.91 L 78.863 76.427 L 81.353 83.45 L 79.978 83.97 L 79.978 83.97 Q 74.404 86.125 67.976 86.125 L 67.976 86.125 L 67.976 86.125 Q 64.669 86.125 61.789 85.605 L 61.789 85.605 L 61.789 85.605 Q 58.909 85.085 56.159 83.765 L 56.159 83.765 L 56.159 83.765 Q 53.409 82.446 51.459 80.421 L 51.459 80.421 L 51.459 80.421 Q 49.508 78.396 48.337 75.163 L 48.337 75.163 L 48.337 75.163 Q 47.167 71.93 47.167 67.806 Z " fill="rgb(221,221,221)"/></g></g></svg>