<?xml version="1.0" encoding="UTF-8" standalone="no"?><!-- Generator: Gravit.io --><svg xmlns="http://www.w3.org/2000/svg" xmlns:xlink="http://www.w3.org/1999/xlink" style="isolation:isolate" viewBox="0 0 128 128" width="128pt" height="128pt"><defs><clipPath id="_clipPath_osqmrimV3B8qTtt8a0bdPTxG5NoCkgrR"><rect width="128" height="128"/></clipPath></defs><g clip-path="url(#_clipPath_osqmrimV3B8qTtt8a0bdPTxG5NoCkgrR)"><rect width="128" height="128" style="fill:rgb(34,34,34)" fill-opacity="0"/><g><path d=" M 96.088 95.774 L 96.088 95.924 C 96.088 99.829 92.918 103 89.012 103 L 44.926 103 C 41.021 103 38.003 99.833 38.193 95.932 L 38.201 95.766 C 38.39 91.865 35.373 88.653 31.468 88.598 L 25.787 88.518 C 21.882 88.462 18.712 85.247 18.712 81.341 L 18.712 28.786 C 18.712 24.881 21.882 21.739 25.788 21.774 L 34.219 21.851 C 38.125 21.886 41.295 24.934 41.295 28.653 L 41.295 28.653 C 41.295 32.371 44.466 35.39 48.371 35.39 L 102.212 35.39 C 106.117 35.39 109.288 38.561 109.288 42.467 L 109.288 81.341 C 109.288 85.247 106.331 88.48 102.688 88.558 L 102.688 88.558 C 99.046 88.635 96.088 91.868 96.088 95.774 Z " fill="#676767"/></g></g></svg>